inDegrees=no
DataType=double
version=3
OpenSimVersion=4.4-2022-10-11-798caa840
endheader
time	elv_angle	shoulder_elv	shoulder_rot	elbow_flexion	pro_sup	deviation	flexion
0	0	1.221730476396031	0.3490658503988659	0.7853981633974483	0	0	0
0.01515151515151515	0	1.221730476396031	0.3490658503988659	0.7972981355701368	0	0	0
0.0303030303030303	0	1.221730476396031	0.3490658503988659	0.8091981077428255	0	0	0
0.04545454545454546	0	1.221730476396031	0.3490658503988659	0.8210980799155142	0	0	0
0.06060606060606061	0	1.221730476396031	0.3490658503988659	0.8329980520882028	0	0	0
0.07575757575757576	0	1.221730476396031	0.3490658503988659	0.8448980242608913	0	0	0
0.09090909090909091	0	1.221730476396031	0.3490658503988659	0.85679799643358	0	0	0
0.1060606060606061	0	1.221730476396031	0.3490658503988659	0.8686979686062686	0	0	0
0.1212121212121212	0	1.221730476396031	0.3490658503988659	0.8805979407789571	0	0	0
0.1363636363636364	0	1.221730476396031	0.3490658503988659	0.8924979129516457	0	0	0
0.1515151515151515	0	1.221730476396031	0.3490658503988659	0.9043978851243344	0	0	0
0.1666666666666667	0	1.221730476396031	0.3490658503988659	0.9162978572970231	0	0	0
0.1818181818181818	0	1.221730476396031	0.3490658503988659	0.9281978294697116	0	0	0
0.196969696969697	0	1.221730476396031	0.3490658503988659	0.9400978016424002	0	0	0
0.2121212121212121	0	1.221730476396031	0.3490658503988659	0.9519977738150889	0	0	0
0.2272727272727273	0	1.221730476396031	0.3490658503988659	0.9638977459877774	0	0	0
0.2424242424242424	0	1.221730476396031	0.3490658503988659	0.975797718160466	0	0	0
0.2575757575757576	0	1.221730476396031	0.3490658503988659	0.9876976903331547	0	0	0
0.2727272727272727	0	1.221730476396031	0.3490658503988659	0.9995976625058433	0	0	0
0.2878787878787879	0	1.221730476396031	0.3490658503988659	1.011497634678532	0	0	0
0.303030303030303	0	1.221730476396031	0.3490658503988659	1.02339760685122	0	0	0
0.3181818181818182	0	1.221730476396031	0.3490658503988659	1.035297579023909	0	0	0
0.3333333333333334	0	1.221730476396031	0.3490658503988659	1.047197551196598	0	0	0
0.3484848484848485	0	1.221730476396031	0.3490658503988659	1.059097523369287	0	0	0
0.3636363636363636	0	1.221730476396031	0.3490658503988659	1.070997495541975	0	0	0
0.3787878787878788	0	1.221730476396031	0.3490658503988659	1.082897467714664	0	0	0
0.3939393939393939	0	1.221730476396031	0.3490658503988659	1.094797439887352	0	0	0
0.4090909090909091	0	1.221730476396031	0.3490658503988659	1.106697412060041	0	0	0
0.4242424242424243	0	1.221730476396031	0.3490658503988659	1.118597384232729	0	0	0
0.4393939393939394	0	1.221730476396031	0.3490658503988659	1.130497356405418	0	0	0
0.4545454545454546	0	1.221730476396031	0.3490658503988659	1.142397328578107	0	0	0
0.4696969696969697	0	1.221730476396031	0.3490658503988659	1.154297300750795	0	0	0
0.4848484848484849	0	1.221730476396031	0.3490658503988659	1.166197272923484	0	0	0
0.5	0	1.221730476396031	0.3490658503988659	1.178097245096172	0	0	0
0.5151515151515151	0	1.221730476396031	0.3490658503988659	1.189997217268861	0	0	0
0.5303030303030303	0	1.221730476396031	0.3490658503988659	1.20189718944155	0	0	0
0.5454545454545454	0	1.221730476396031	0.3490658503988659	1.213797161614238	0	0	0
0.5606060606060607	0	1.221730476396031	0.3490658503988659	1.225697133786927	0	0	0
0.5757575757575758	0	1.221730476396031	0.3490658503988659	1.237597105959615	0	0	0
0.5909090909090909	0	1.221730476396031	0.3490658503988659	1.249497078132304	0	0	0
0.6060606060606061	0	1.221730476396031	0.3490658503988659	1.261397050304993	0	0	0
0.6212121212121212	0	1.221730476396031	0.3490658503988659	1.273297022477681	0	0	0
0.6363636363636364	0	1.221730476396031	0.3490658503988659	1.28519699465037	0	0	0
0.6515151515151515	0	1.221730476396031	0.3490658503988659	1.297096966823059	0	0	0
0.6666666666666667	0	1.221730476396031	0.3490658503988659	1.308996938995747	0	0	0
0.6818181818181819	0	1.221730476396031	0.3490658503988659	1.320896911168436	0	0	0
0.696969696969697	0	1.221730476396031	0.3490658503988659	1.332796883341125	0	0	0
0.7121212121212122	0	1.221730476396031	0.3490658503988659	1.344696855513813	0	0	0
0.7272727272727273	0	1.221730476396031	0.3490658503988659	1.356596827686501	0	0	0
0.7424242424242424	0	1.221730476396031	0.3490658503988659	1.36849679985919	0	0	0
0.7575757575757576	0	1.221730476396031	0.3490658503988659	1.380396772031879	0	0	0
0.7727272727272727	0	1.221730476396031	0.3490658503988659	1.392296744204568	0	0	0
0.7878787878787878	0	1.221730476396031	0.3490658503988659	1.404196716377256	0	0	0
0.8030303030303031	0	1.221730476396031	0.3490658503988659	1.416096688549945	0	0	0
0.8181818181818182	0	1.221730476396031	0.3490658503988659	1.427996660722633	0	0	0
0.8333333333333334	0	1.221730476396031	0.3490658503988659	1.439896632895322	0	0	0
0.8484848484848485	0	1.221730476396031	0.3490658503988659	1.451796605068011	0	0	0
0.8636363636363636	0	1.221730476396031	0.3490658503988659	1.463696577240699	0	0	0
0.8787878787878788	0	1.221730476396031	0.3490658503988659	1.475596549413388	0	0	0
0.8939393939393939	0	1.221730476396031	0.3490658503988659	1.487496521586076	0	0	0
0.9090909090909092	0	1.221730476396031	0.3490658503988659	1.499396493758765	0	0	0
0.9242424242424243	0	1.221730476396031	0.3490658503988659	1.511296465931454	0	0	0
0.9393939393939394	0	1.221730476396031	0.3490658503988659	1.523196438104142	0	0	0
0.9545454545454546	0	1.221730476396031	0.3490658503988659	1.535096410276831	0	0	0
0.9696969696969697	0	1.221730476396031	0.3490658503988659	1.546996382449519	0	0	0
0.9848484848484849	0	1.221730476396031	0.3490658503988659	1.558896354622208	0	0	0
1	0	1.221730476396031	0.3490658503988659	1.570796326794897	0	0	0
